<svg id="Calque_1_-_copie_2" data-name="Calque 1 - copie 2" xmlns="http://www.w3.org/2000/svg" viewBox="0 0 629.65 231.51"><path d="M802,420.49A80.18,80.18,0,0,0,734.64,384h-23l-15.3,41.74L681,384H562.28l-17,46.5-.72.17q-3.07-4.36-6.55-8.44l-.15-.17c-.61-.71-1.23-1.42-1.86-2.11h0l-.3-.33c-.59-.65-1.19-1.3-1.87-2l-.24-.25c-.61-.64-1.24-1.27-1.92-1.94l-.24-.24c-2.24-2.2-4.59-4.33-7-6.34l-.31-.25c-.67-.55-1.36-1.1-2.1-1.68l-.45-.35c-.66-.52-1.33-1-2-1.52l-.5-.37c-.7-.51-1.4-1-2-1.46l-.48-.33c-2.58-1.77-5.26-3.44-7.92-4.94l-.6-.34c-.71-.39-1.42-.78-2.17-1.17l-.71-.38-2-1-.84-.41-2.1-1-.76-.35c-.8-.35-1.6-.7-2.43-1l-.42-.18c-1-.4-2-.79-3-1.17l-.52-.2c-.8-.29-1.6-.58-2.42-.86l-.82-.28-2.18-.7-1-.3-2-.58-1.07-.29c-.69-.19-1.38-.36-2-.52l-1.1-.27c-.75-.18-1.5-.34-2.23-.5l-.87-.19c-1-.21-2.1-.41-3.07-.58l-.48-.09c-.9-.15-1.81-.29-2.7-.42l-1-.14-2.18-.28-1.19-.13-2-.19-1.29-.1-2.07-.13-1.17-.06c-.74,0-1.49-.06-2.2-.08l-1.08,0h-3s-175.54-.16-177.81,0h-2.2v.18a97.62,97.62,0,0,0-88.42,97.07V615.23h88.42v.24h183l1.11,0,2.12-.07,1.25-.07c.63,0,1.27-.07,1.87-.12.41,0,.81-.06,1.22-.09l.16,0,1.79-.16,1.44-.16,1.68-.21c.48-.06.95-.12,1.44-.2s1.05-.15,1.64-.25l1.44-.24,1.54-.28,1.55-.3,1.54-.33.14,0,1.33-.3,1.31-.32.34-.09,1.36-.34,1.18-.33.49-.14,1.25-.35.3-.09,2.06,4.52H606.88l14.76-33.62,14.76,33.62H756.2L808.29,496.8A80.18,80.18,0,0,0,802,420.49ZM486.17,575.87h0l-.57.25-1.07.46-.82.34-1.11.45-.81.3c-.38.15-.76.3-1.15.43-.23.09-.46.16-.7.24-.81.28-1.62.55-2.44.8l-.76.24-1.1.31-.95.27-1.07.27c-.34.08-.67.17-1,.24l-1.05.24-1.06.23-1,.2-1.09.2-1,.17-1.13.17-1,.15L464,582l-1,.11-1.23.11-1,.08-1.32.08-.9,0-1.49.05-.76,0H306.88v-.24H218.46V481.29a64.5,64.5,0,0,1,64.5-64.5h0v113h34.13V530h54.29v0H442c.58,0,1.16,0,1.73-.06l.56,0,1.12-.11.64-.09c.33,0,.66-.1,1-.15l.66-.13.92-.21.65-.17c.3-.08.59-.18.88-.27l.62-.2c.31-.1.62-.22.92-.34l.52-.2c.44-.19.88-.39,1.3-.6l.64-.34.67-.37.66-.4.58-.37.66-.46.52-.39c.22-.17.44-.33.65-.51l.47-.39.64-.57.23-.22a27,27,0,0,0,1.93-2.07,28.31,28.31,0,0,0,2.62-3.73l25,57C488,575.05,487.06,575.47,486.17,575.87Zm291.91-92.33-43.44,98.93H658l-36.32-82.72-36.31,82.72H509.67l-44.32-97.53h0a26.23,26.23,0,0,0-7.7-10.3l-.59-.46c-.3-.22-.62-.43-.93-.64l-.77-.5c-.29-.18-.59-.35-.89-.52l-.92-.47c-.28-.15-.58-.29-.88-.42s-.68-.29-1-.42-.58-.23-.88-.33-.76-.24-1.15-.36-.57-.17-.87-.24-.85-.19-1.28-.28-.56-.12-.85-.16c-.49-.08-1-.13-1.5-.19l-.73-.08c-.76-.06-1.54-.1-2.33-.1H371.38V511h-64.5V417H454.1q1.15,0,2.31,0l.74,0,1.55.05.86.05c.48,0,.95,0,1.43.09l.87.07,1.41.13.85.09,1.5.19.71.1,2,.32.16,0c.73.13,1.46.27,2.18.42l.58.12,1.57.35.73.18,1.4.36.75.21,1.4.4.7.22c.5.15,1,.32,1.49.48l.57.19c.66.23,1.31.46,2,.71l.06,0c.69.26,1.38.53,2.06.81l.3.12,1.68.73.52.23,1.44.68.57.27,1.4.71.52.27,1.49.81.38.21q2.85,1.62,5.54,3.46l.3.21,1.46,1,.37.28,1.38,1,.34.27c.49.38,1,.77,1.45,1.16l.22.18q2.55,2.12,4.91,4.43l.1.1c.48.47,1,1,1.42,1.44l.21.22,1.29,1.39.21.23c.45.49.88,1,1.31,1.49l.12.14a82.47,82.47,0,0,1,14.5,24.72h0l19.49,53.33L585.33,417H658l38.28,104.75L734.64,417h0C768.88,417,791.84,452.19,778.08,483.54Z" transform="translate(-185.46 -383.97)"/></svg>